<svg xmlns="http://www.w3.org/2000/svg" width="120.092" height="61.348" viewBox="0 0 112.586 57.514">
   <path
      d="M15.474 1.953c5.573-.108 11.154-.054 16.714.09 5.006.098 12.756.876 19.148.623 4.28.486 8.603-.311 12.911.288 6.164-.073 12.31-1.003 18.497-.664 5.81.334 10.052.468 17.518.33 7.402-.515 10.784.102 10.263 7.294-.302 6.127-.167 11.363-.175 16.043.035 8.648 1.362 24.998-.566 27.614-2.952 3.79-9.954 1.076-14.306 1.16-3.987-.144-9.602 1.102-13.523.042-4.88-.673-8.213.66-13.114.305-4.964 0-9.787-.844-14.57.312-5.884.777-13.383.644-19.2-.51-5.841-.903-9.964-.064-15.84-.128-4.778-.05-15.036 1.758-16.604-.035-1.748-1.85-.385-11.781-.438-15.645-.374-9.227-.536-15.603.13-24.823.085-1.613-1.135-8.421.014-10.21C4.747.468 11.59 2.452 15.473 1.954z"
      fill="none" stroke="#3c3c3c" stroke-width="3" stroke-linecap="round" stroke-linejoin="round"
      stroke-miterlimit="10" />
</svg>